static_grf.mot
version=1
nRows=15
nColumns 19
inDegrees=yes
endheader
time	1_ground_force_vx	1_ground_force_vy	1_ground_force_vz	1_ground_force_px	1_ground_force_py	1_ground_force_pz	1_ground_torque_x	1_ground_torque_y	1_ground_torque_z	2_ground_force_vx	2_ground_force_vy	2_ground_force_vz	2_ground_force_px	2_ground_force_py	2_ground_force_pz	2_ground_torque_x	2_ground_torque_y	2_ground_torque_z
            3.751500	            3.585802	          401.444932	          -38.596066	           -0.283389	            0.006127	           -0.385004	            0.017926	            2.006851	           -0.192944	           -4.211960	          391.748861	           31.855756	           -0.255448	            0.005685	           -0.732326	           -0.005023	            0.467212	            0.037992
            3.752000	            3.814463	          401.986590	          -38.777740	           -0.283152	            0.006127	           -0.384986	            0.019146	            2.017719	           -0.194640	           -4.256131	          391.011962	           31.900076	           -0.255721	            0.005683	           -0.731990	           -0.004428	            0.406809	            0.033189
            3.752500	            3.586225	          401.624442	          -38.411869	           -0.283084	            0.006126	           -0.384880	            0.018055	            2.021958	           -0.193383	           -3.929655	          391.382599	           31.572754	           -0.255463	            0.005684	           -0.732181	           -0.004375	            0.435733	            0.035150
            3.753000	            3.447671	          401.626185	          -38.824228	           -0.283568	            0.006128	           -0.385252	            0.017163	            1.999331	           -0.193270	           -3.975052	          391.013144	           31.853028	           -0.255436	            0.005686	           -0.732518	           -0.004315	            0.424481	            0.034579
            3.753500	            3.631807	          401.805079	          -38.502922	           -0.283058	            0.006126	           -0.384878	            0.018194	            2.012938	           -0.192889	           -4.399380	          391.748352	           31.808908	           -0.255104	            0.005687	           -0.732565	           -0.004839	            0.430875	            0.034986
            3.754000	            3.677602	          401.444753	          -38.550434	           -0.283238	            0.006127	           -0.384999	            0.018417	            2.010397	           -0.193057	           -4.073486	          392.302460	           31.669955	           -0.255415	            0.005686	           -0.732516	           -0.004852	            0.467277	            0.037723
            3.754500	            3.494425	          401.624621	          -38.457494	           -0.283241	            0.006126	           -0.384933	            0.017324	            1.991096	           -0.190657	           -4.301734	          390.644120	           31.711069	           -0.255414	            0.005685	           -0.732231	           -0.004987	            0.452919	            0.036766
            3.755000	            3.493448	          401.986725	          -38.822795	           -0.283095	            0.006125	           -0.384669	            0.017403	            2.002544	           -0.193400	           -4.347151	          390.274833	           31.944416	           -0.255389	            0.005685	           -0.732184	           -0.005048	            0.453160	            0.037092
            3.755500	            3.815098	          401.625076	          -38.550002	           -0.283003	            0.006126	           -0.384844	            0.019523	            2.055189	           -0.197267	           -4.161848	          390.828768	           31.711667	           -0.255449	            0.005685	           -0.732182	           -0.004662	            0.437765	            0.035520
            3.756000	            3.585883	          401.625032	          -38.549433	           -0.283273	            0.006126	           -0.384941	            0.017936	            2.008898	           -0.192821	           -4.120213	          392.301287	           31.951544	           -0.254977	            0.005687	           -0.732515	           -0.004533	            0.431642	            0.035156
            3.756500	            3.448175	          401.985733	          -38.593406	           -0.282920	            0.006125	           -0.384646	            0.017046	            1.987264	           -0.190791	           -4.396763	          391.012124	           31.712423	           -0.255161	            0.005686	           -0.732376	           -0.005600	            0.498030	            0.040392
            3.757000	            3.723101	          402.706849	          -38.590997	           -0.282744	            0.006124	           -0.384409	            0.018800	            2.033464	           -0.194865	           -4.117616	          391.565226	           31.808131	           -0.255014	            0.005687	           -0.732469	           -0.004264	            0.405482	            0.032939
            3.757500	            3.540106	          401.264491	          -38.550866	           -0.283098	            0.006126	           -0.384873	            0.017362	            1.967898	           -0.189063	           -4.114355	          390.644964	           31.664062	           -0.255211	            0.005685	           -0.732134	           -0.004251	            0.403609	            0.032715
            3.758000	            3.402526	          402.165566	          -38.500807	           -0.282906	            0.006124	           -0.384345	            0.016711	            1.975168	           -0.189090	           -4.303145	          391.013132	           31.524671	           -0.255192	            0.005685	           -0.731990	           -0.004594	            0.417408	            0.033653
            3.758500	            3.539306	          402.527304	          -38.774738	           -0.282821	            0.006124	           -0.384441	            0.018186	            2.068254	           -0.199231	           -4.493765	          391.932322	           31.762677	           -0.255201	            0.005686	           -0.732375	           -0.005576	            0.486334	            0.039413
